<svg height="24" width="24" xmlns="http://www.w3.org/2000/svg"><g transform="translate(0 -1028.4)"><path d="m5 1032.4c-1.1046 0-2 .9-2 2v14c0 1.1.8954 2 2 2h6 2 6c1.105 0 2-.9 2-2v-14c0-1.1-.895-2-2-2h-6-2z" fill="#bdc3c7"/><path d="m5 3c-1.1046 0-2 .8954-2 2v14c0 1.105.8954 2 2 2h6 2 6c1.105 0 2-.895 2-2v-14c0-1.1046-.895-2-2-2h-6-2z" fill="#ecf0f1" transform="translate(0 1028.4)"/><path d="m5 3c-1.1046 0-2 .8954-2 2v3 1h18v-1-3c0-1.1046-.895-2-2-2h-6-2z" fill="#e74c3c" transform="translate(0 1028.4)"/><path d="m7 5.5a1.5 1.5 0 1 1 -3 0 1.5 1.5 0 1 1 3 0z" fill="#c0392b" transform="translate(.5 1028.4)"/><path d="m7 5.5a1.5 1.5 0 1 1 -3 0 1.5 1.5 0 1 1 3 0z" fill="#c0392b" transform="translate(12.5 1028.4)"/><g fill="#bdc3c7"><path d="m5 1039.4v2h2v-2zm3 0v2h2v-2zm3 0v2h2v-2zm3 0v2h2v-2zm3 0v2h2v-2z"/><path d="m5 1042.4v2h2v-2zm3 0v2h2v-2zm3 0v2h2v-2zm3 0v2h2v-2zm3 0v2h2v-2z"/><path d="m5 1045.4v2h2v-2zm3 0v2h2v-2zm3 0v2h2v-2zm3 0v2h2v-2zm3 0v2h2v-2z"/></g><path d="m24 12a12 12 0 1 1 -24 0 12 12 0 1 1 24 0z" fill="#34495e" transform="matrix(.42014 0 0 .42014 13.458 1041.8)"/><path d="m18.5 1041.8c-3.038 0-5.5 2.5-5.5 5.5h.917c0-2.5 2.052-4.6 4.583-4.6s4.583 2.1 4.583 4.6h.917c0-3-2.462-5.5-5.5-5.5z" fill="#2c3e50"/><path d="m18.958 1046.4v.9h.459 2.75c.253 0 .458-.2.458-.4 0-.3-.205-.5-.458-.5h-2.75z" fill="#bdc3c7"/><path d="m18.5 1043.7c-.253 0-.458.2-.458.4v1.8.5h.916v-.5-1.8c0-.2-.205-.4-.458-.4z" fill="#bdc3c7"/><path d="m-730.83 753.12h3.2083v.45833h-3.2083z" fill="#c0392b" transform="matrix(.70710678 -.70710678 .70710678 .70710678 0 0)"/><path d="m18.5 1045.9c-.506 0-.917.5-.917 1s.411.9.917.9.917-.4.917-.9-.411-1-.917-1zm0 .5c.253 0 .458.2.458.5 0 .2-.205.4-.458.4s-.458-.2-.458-.4c0-.3.205-.5.458-.5z" fill="#bdc3c7"/><path d="m18.5 1041.4c-3.038 0-5.5 2.4-5.5 5.5 0 3 2.462 5.5 5.5 5.5s5.5-2.5 5.5-5.5c0-3.1-2.462-5.5-5.5-5.5zm0 .9c2.531 0 4.583 2 4.583 4.6 0 2.5-2.052 4.5-4.583 4.5s-4.583-2-4.583-4.5c0-2.6 2.052-4.6 4.583-4.6z" fill="#95a5a6"/><path d="m13 12a1 1 0 1 1 -2 0 1 1 0 1 1 2 0z" fill="#2c3e50" transform="matrix(.45833 0 0 .45833 13 1041.4)"/><path d="m19.293 1046.4c.078.1.129.3.129.5 0 .1-.051.3-.129.4h.129.372c.052-.1.086-.3.086-.4 0-.2-.034-.4-.086-.5h-.372z" fill="#95a5a6"/><path d="m6 1c-.5523 0-1 .4477-1 1v3c0 .5523.4477 1 1 1s1-.4477 1-1v-3c0-.5523-.4477-1-1-1zm12 0c-.552 0-1 .4477-1 1v3c0 .5523.448 1 1 1s1-.4477 1-1v-3c0-.5523-.448-1-1-1z" fill="#95a5a6" transform="translate(0 1028.4)"/><path d="m6 1029.4c-.5523 0-1 .4-1 1v2h2v-2c0-.6-.4477-1-1-1zm12 0c-.552 0-1 .4-1 1v2h2v-2c0-.6-.448-1-1-1z" fill="#bdc3c7"/></g></svg>